<svg width="50" height="50" viewBox="0 0 50 50" fill="none" xmlns="http://www.w3.org/2000/svg">
<circle cx="25.2231" cy="24.7739" r="24.7778" fill="white"/>
<g clip-path="url(#clip0_0_861)">
<path d="M37.589 19.6695C37.5309 18.3529 37.318 17.4479 37.013 16.6635C36.6983 15.8311 36.2143 15.0857 35.5802 14.4661C34.9606 13.8369 34.2103 13.3479 33.3874 13.0382C32.5987 12.7333 31.6983 12.5203 30.3817 12.4623C29.0553 12.3993 28.6343 12.3848 25.2702 12.3848C21.9062 12.3848 21.4851 12.3993 20.1636 12.4574C18.8471 12.5155 17.942 12.7285 17.1579 13.0333C16.3252 13.3479 15.5799 13.8319 14.9603 14.4661C14.331 15.0857 13.8423 15.8359 13.5324 16.6588C13.2274 17.4479 13.0145 18.3481 12.9564 19.6646C12.8935 20.991 12.8789 21.412 12.8789 24.7761C12.8789 28.1401 12.8935 28.5612 12.9515 29.8826C13.0096 31.1992 13.2227 32.1043 13.5277 32.8886C13.8423 33.7211 14.331 34.4664 14.9603 35.086C15.5799 35.7153 16.3301 36.2042 17.153 36.5139C17.942 36.8189 18.8422 37.0319 20.1589 37.0898C21.4802 37.1481 21.9015 37.1624 25.2655 37.1624C28.6296 37.1624 29.0506 37.1481 30.3721 37.0898C31.6886 37.0318 32.5937 36.8189 33.3778 36.5139C34.2013 36.1955 34.9492 35.7086 35.5736 35.0843C36.1979 34.46 36.6849 33.7121 37.0034 32.8886C37.3081 32.0996 37.5213 31.1992 37.5793 29.8826C37.6374 28.5612 37.6519 28.1401 37.6519 24.7761C37.6519 21.412 37.647 20.9909 37.589 19.6695ZM35.3577 29.7858C35.3043 30.9959 35.1011 31.6494 34.9317 32.085C34.5153 33.1644 33.6586 34.0212 32.5792 34.4375C32.1435 34.6069 31.4854 34.8102 30.28 34.8633C28.9731 34.9216 28.5812 34.9359 25.2752 34.9359C21.9691 34.9359 21.5723 34.9216 20.2701 34.8633C19.06 34.8102 18.4065 34.6069 17.9709 34.4375C17.4338 34.239 16.9449 33.9243 16.5479 33.5129C16.1365 33.1112 15.8219 32.6271 15.6233 32.0899C15.4539 31.6543 15.2507 30.9959 15.1976 29.7908C15.1393 28.4839 15.125 28.0917 15.125 24.7857C15.125 21.4797 15.1393 21.0828 15.1976 19.7809C15.2507 18.5708 15.4539 17.9173 15.6233 17.4817C15.8219 16.9443 16.1365 16.4555 16.5529 16.0585C16.9544 15.6471 17.4385 15.3324 17.9758 15.1341C18.4115 14.9647 19.0699 14.7614 20.275 14.7081C21.5819 14.6501 21.9741 14.6355 25.2798 14.6355C28.5908 14.6355 28.9827 14.6501 30.2849 14.7081C31.495 14.7615 32.1485 14.9647 32.5841 15.1341C33.1212 15.3324 33.6102 15.6471 34.0071 16.0585C34.4185 16.4603 34.7331 16.9443 34.9317 17.4817C35.1011 17.9173 35.3043 18.5755 35.3576 19.7809C35.4157 21.0878 35.4302 21.4797 35.4302 24.7857C35.4302 28.0917 35.4157 28.4789 35.3577 29.7858Z" fill="#28282B"/>
<path d="M25.2713 18.4104C21.7573 18.4104 18.9062 21.2613 18.9062 24.7755C18.9062 28.2897 21.7573 31.1406 25.2713 31.1406C28.7854 31.1406 31.6364 28.2897 31.6364 24.7755C31.6364 21.2613 28.7854 18.4104 25.2713 18.4104ZM25.2713 28.9043C22.9916 28.9043 21.1424 27.0554 21.1424 24.7755C21.1424 22.4956 22.9916 20.6467 25.2713 20.6467C27.5512 20.6467 29.4001 22.4956 29.4001 24.7755C29.4001 27.0554 27.5511 28.9043 25.2713 28.9043ZM33.3742 18.1587C33.3742 18.9794 32.7088 19.6447 31.888 19.6447C31.0674 19.6447 30.402 18.9794 30.402 18.1587C30.402 17.338 31.0674 16.6729 31.888 16.6729C32.7088 16.6729 33.3742 17.338 33.3742 18.1587Z" fill="#28282B"/>
</g>
<defs>
<clipPath id="clip0_0_861">
<rect width="24.7778" height="24.7778" fill="white" transform="translate(12.8359 12.3848)"/>
</clipPath>
</defs>
</svg>
