<svg width="50" height="50" viewBox="0 0 50 50" fill="none" xmlns="http://www.w3.org/2000/svg">
<circle cx="24.7778" cy="24.7739" r="24.7778" fill="white"/>
<g clip-path="url(#clip0_0_856)">
<path d="M37.1684 37.1625V28.0877C37.1684 23.6277 36.2083 20.2207 31.0049 20.2207C28.4962 20.2207 26.8237 21.5835 26.1423 22.8843H26.0803V20.6234H21.1558V37.1625H26.2972V28.9549C26.2972 26.7868 26.6998 24.7117 29.3634 24.7117C31.996 24.7117 32.027 27.1585 32.027 29.0788V37.1316H37.1684V37.1625ZM12.7933 20.6234H17.9347V37.1625H12.7933V20.6234ZM15.364 12.3848C13.7224 12.3848 12.3906 13.7166 12.3906 15.3581C12.3906 16.9996 13.7224 18.3624 15.364 18.3624C17.0055 18.3624 18.3373 16.9996 18.3373 15.3581C18.3373 13.7166 17.0055 12.3848 15.364 12.3848Z" fill="#28282B"/>
</g>
<defs>
<clipPath id="clip0_0_856">
<rect width="24.7778" height="24.7778" fill="white" transform="translate(12.3906 12.3848)"/>
</clipPath>
</defs>
</svg>
